<svg width="555" height="555" viewBox="0 0 555 555" fill="none" xmlns="http://www.w3.org/2000/svg">
<path d="M481.598 419.41V190.738C481.598 181.733 474.298 174.433 465.297 174.433H89.9671C80.962 174.433 73.6621 181.733 73.6621 190.738V419.41H46.0703C46.0703 427.853 52.914 434.696 61.3569 434.696H493.903C498.124 434.696 501.945 432.986 504.715 430.217C507.48 427.452 509.189 423.631 509.189 419.41H481.598ZM86.2296 193.318C86.2296 189.788 89.0961 186.922 92.6309 186.922H462.629C466.164 186.922 469.03 189.788 469.03 193.318V401.625C469.03 405.16 466.164 408.026 462.629 408.026H92.6309C89.0961 408.026 86.2296 405.16 86.2296 401.625V193.318ZM324.054 423.802C322.93 424.926 321.377 425.622 319.662 425.622H235.598C232.169 425.622 229.385 422.838 229.385 419.41H325.875C325.875 421.124 325.179 422.677 324.054 423.802Z" fill="black"/>
<path d="M462.626 186.922H92.6278C89.0925 186.922 86.2266 189.788 86.2266 193.324V401.626C86.2266 405.161 89.0925 408.027 92.6278 408.027H462.626C466.161 408.027 469.027 405.161 469.027 401.626V193.324C469.027 189.788 466.161 186.922 462.626 186.922Z" fill="#E3E3E3"/>
<path d="M325.872 419.41C325.872 421.124 325.176 422.677 324.052 423.802C322.927 424.926 321.374 425.622 319.66 425.622H235.595C232.166 425.622 229.383 422.838 229.383 419.41H325.872Z" fill="#BCBCBC"/>
<path d="M325.872 419.41C325.872 421.124 325.176 422.677 324.052 423.802C322.927 424.926 321.374 425.622 319.66 425.622H235.595C232.166 425.622 229.383 422.838 229.383 419.41H325.872Z" fill="black"/>
<path fill-rule="evenodd" clip-rule="evenodd" d="M481.598 419.41V419.411H509.189C509.189 423.632 507.48 427.453 504.715 430.218C501.945 432.988 498.124 434.698 493.903 434.698H61.3569C52.914 434.698 46.0703 427.854 46.0703 419.411H73.6621V419.41H481.598ZM319.662 425.623C321.377 425.623 322.93 424.927 324.054 423.803C325.179 422.678 325.875 421.125 325.875 419.411H229.385C229.385 422.84 232.169 425.623 235.598 425.623H319.662Z" fill="#BCBCBC"/>
<path d="M386.959 120.303H168.291C161.019 120.303 155.125 125.762 155.125 132.497V353.108C155.125 359.843 161.019 365.303 168.291 365.303H386.959C394.231 365.303 400.125 359.843 400.125 353.108V132.497C400.125 125.762 394.231 120.303 386.959 120.303Z" fill="#3D3D3D"/>
<path d="M214.703 175.748C214.682 164.628 223.678 155.597 234.797 155.575L296.465 155.454C301.803 155.444 306.927 157.554 310.71 161.32L334.409 184.916C338.194 188.685 340.327 193.803 340.337 199.144L340.553 309.59C340.575 320.709 331.579 329.741 320.459 329.763L235.138 329.929C224.019 329.951 214.987 320.955 214.966 309.836L214.703 175.748Z" fill="white"/>
<path d="M340.554 309.59L340.553 243.136L214.966 243.135L214.966 309.836C214.988 320.955 224.02 329.951 235.139 329.93L320.46 329.763C331.579 329.741 340.576 320.71 340.554 309.59Z" fill="#E3E3E3"/>
<path d="M254.142 213.508C254.176 209.863 257.159 206.934 260.804 206.968L304.392 207.37C308.038 207.404 310.966 210.386 310.932 214.032C310.899 217.678 307.916 220.606 304.271 220.572L260.682 220.17C257.037 220.137 254.109 217.154 254.142 213.508Z" fill="#BCBCBC"/>
<path d="M260.805 206.968C264.451 207.002 267.379 209.985 267.345 213.63L266.848 267.557C266.814 271.202 263.832 274.131 260.186 274.097C256.54 274.063 253.612 271.081 253.646 267.435L254.143 213.509C254.177 209.863 257.159 206.935 260.805 206.968Z" fill="#BCBCBC"/>
<path d="M304.391 207.368C308.037 207.401 310.965 210.384 310.931 214.03L310.434 267.956C310.4 271.602 307.418 274.53 303.772 274.496C300.126 274.463 297.198 271.48 297.232 267.834L297.729 213.908C297.763 210.262 300.745 207.334 304.391 207.368Z" fill="#BCBCBC"/>
<circle cx="250.695" cy="268.538" r="16.1418" transform="rotate(0.528433 250.695 268.538)" fill="#BCBCBC"/>
<circle cx="294.281" cy="268.939" r="16.1418" transform="rotate(0.528433 294.281 268.939)" fill="#BCBCBC"/>
<path d="M254.15 213.508C254.184 209.862 257.166 206.934 260.812 206.968L304.4 207.37C308.046 207.403 310.974 210.386 310.94 214.032C310.907 217.677 307.924 220.605 304.278 220.572L260.69 220.17C257.045 220.136 254.116 217.154 254.15 213.508Z" fill="#E3E3E3"/>
<path d="M267.353 213.63C267.387 209.985 264.459 207.002 260.813 206.968C257.167 206.935 254.185 209.863 254.151 213.509L253.654 238.782L266.856 238.904L267.353 213.63Z" fill="#E3E3E3"/>
<path d="M310.939 214.03C310.973 210.384 308.045 207.401 304.399 207.368C300.753 207.334 297.771 210.262 297.737 213.908L297.24 239.839L310.442 239.96L310.939 214.03Z" fill="#E3E3E3"/>
<path d="M338.516 190.813L317.013 190.855C310.311 190.869 304.868 185.446 304.855 178.744L304.813 157.246C306.986 158.23 308.987 159.602 310.71 161.318L334.41 184.914C336.138 186.635 337.522 188.637 338.516 190.813Z" fill="#E3E3E3"/>
<path d="M379.453 238.913C379.453 240.191 378.952 241.359 378.119 242.192C377.285 243.026 376.118 243.526 374.839 243.526H182.473C179.916 243.526 177.859 241.47 177.859 238.913C177.859 236.356 178.36 236.467 179.193 235.634C180.027 234.8 181.194 234.3 182.473 234.3H374.839C377.396 234.3 379.453 236.356 379.453 238.913Z" fill="#FF7059"/>
</svg>
